<mxfile host="Electron" modified="2024-03-18T10:00:02.080Z" agent="Mozilla/5.0 (Windows NT 10.0; Win64; x64) AppleWebKit/537.36 (KHTML, like Gecko) draw.io/24.0.4 Chrome/120.0.6099.109 Electron/28.1.0 Safari/537.36" etag="jeE7N8pDvblf8O_nVN6c" version="24.0.4" type="device" pages="3">
  <diagram name="Attack WetRag Effect" id="nPsDS_A6axtzXALNAuT4">
    <mxGraphModel dx="1290" dy="621" grid="1" gridSize="10" guides="1" tooltips="1" connect="1" arrows="1" fold="1" page="1" pageScale="1" pageWidth="827" pageHeight="1169" math="0" shadow="0">
      <root>
        <mxCell id="0" />
        <mxCell id="1" parent="0" />
        <mxCell id="-_uWjWU2zD5phCel9xXG-4" value="&lt;b&gt;sd &lt;/b&gt;Attack WetRag Effect" style="shape=umlFrame;whiteSpace=wrap;html=1;pointerEvents=0;width=190;height=30;" parent="1" vertex="1">
          <mxGeometry x="40" y="560" width="580" height="280" as="geometry" />
        </mxCell>
        <mxCell id="-_uWjWU2zD5phCel9xXG-32" style="edgeStyle=orthogonalEdgeStyle;rounded=0;orthogonalLoop=1;jettySize=auto;html=1;exitX=0.5;exitY=0;exitDx=0;exitDy=0;entryX=0.5;entryY=1;entryDx=0;entryDy=0;endArrow=none;endFill=0;" parent="1" source="-_uWjWU2zD5phCel9xXG-22" target="-_uWjWU2zD5phCel9xXG-24" edge="1">
          <mxGeometry relative="1" as="geometry" />
        </mxCell>
        <mxCell id="-_uWjWU2zD5phCel9xXG-38" style="rounded=0;orthogonalLoop=1;jettySize=auto;html=1;exitX=1;exitY=0;exitDx=0;exitDy=0;entryX=0;entryY=1;entryDx=0;entryDy=0;endArrow=none;endFill=0;" parent="1" source="-_uWjWU2zD5phCel9xXG-22" target="-_uWjWU2zD5phCel9xXG-23" edge="1">
          <mxGeometry relative="1" as="geometry" />
        </mxCell>
        <mxCell id="-_uWjWU2zD5phCel9xXG-22" value="w: WetRag" style="html=1;whiteSpace=wrap;" parent="1" vertex="1">
          <mxGeometry x="290" y="710" width="110" height="50" as="geometry" />
        </mxCell>
        <mxCell id="-_uWjWU2zD5phCel9xXG-23" value="i: Instructor" style="html=1;whiteSpace=wrap;" parent="1" vertex="1">
          <mxGeometry x="485" y="585" width="110" height="50" as="geometry" />
        </mxCell>
        <mxCell id="-_uWjWU2zD5phCel9xXG-24" value="s: Student" style="html=1;whiteSpace=wrap;" parent="1" vertex="1">
          <mxGeometry x="290" y="585" width="110" height="50" as="geometry" />
        </mxCell>
        <mxCell id="-_uWjWU2zD5phCel9xXG-27" style="edgeStyle=orthogonalEdgeStyle;rounded=0;orthogonalLoop=1;jettySize=auto;html=1;exitX=1;exitY=0.5;exitDx=0;exitDy=0;entryX=0;entryY=0.5;entryDx=0;entryDy=0;endArrow=none;endFill=0;" parent="1" source="-_uWjWU2zD5phCel9xXG-26" target="-_uWjWU2zD5phCel9xXG-22" edge="1">
          <mxGeometry relative="1" as="geometry" />
        </mxCell>
        <mxCell id="-_uWjWU2zD5phCel9xXG-26" value="it: Item" style="html=1;whiteSpace=wrap;" parent="1" vertex="1">
          <mxGeometry x="60" y="710" width="110" height="50" as="geometry" />
        </mxCell>
        <mxCell id="-_uWjWU2zD5phCel9xXG-28" value="1: onAttacked()" style="text;html=1;align=center;verticalAlign=middle;resizable=0;points=[];autosize=1;strokeColor=none;fillColor=none;" parent="1" vertex="1">
          <mxGeometry x="180" y="700" width="100" height="30" as="geometry" />
        </mxCell>
        <mxCell id="-_uWjWU2zD5phCel9xXG-29" style="edgeStyle=orthogonalEdgeStyle;rounded=0;orthogonalLoop=1;jettySize=auto;html=1;exitX=0.994;exitY=0.863;exitDx=0;exitDy=0;entryX=0.5;entryY=1;entryDx=0;entryDy=0;endArrow=none;endFill=0;exitPerimeter=0;" parent="1" source="-_uWjWU2zD5phCel9xXG-22" target="-_uWjWU2zD5phCel9xXG-22" edge="1">
          <mxGeometry relative="1" as="geometry">
            <Array as="points">
              <mxPoint x="399" y="755" />
              <mxPoint x="430" y="755" />
              <mxPoint x="430" y="790" />
              <mxPoint x="345" y="790" />
            </Array>
          </mxGeometry>
        </mxCell>
        <mxCell id="-_uWjWU2zD5phCel9xXG-30" value="" style="endArrow=classic;html=1;rounded=0;" parent="1" edge="1">
          <mxGeometry width="50" height="50" relative="1" as="geometry">
            <mxPoint x="430" y="800" as="sourcePoint" />
            <mxPoint x="350" y="800" as="targetPoint" />
            <Array as="points">
              <mxPoint x="410" y="800" />
            </Array>
          </mxGeometry>
        </mxCell>
        <mxCell id="-_uWjWU2zD5phCel9xXG-31" value="2: getWetness()" style="text;html=1;align=center;verticalAlign=middle;resizable=0;points=[];autosize=1;strokeColor=none;fillColor=none;" parent="1" vertex="1">
          <mxGeometry x="340" y="800" width="110" height="30" as="geometry" />
        </mxCell>
        <mxCell id="-_uWjWU2zD5phCel9xXG-33" value="" style="endArrow=classic;html=1;rounded=0;" parent="1" edge="1">
          <mxGeometry width="50" height="50" relative="1" as="geometry">
            <mxPoint x="355" y="701" as="sourcePoint" />
            <mxPoint x="355" y="651" as="targetPoint" />
          </mxGeometry>
        </mxCell>
        <mxCell id="-_uWjWU2zD5phCel9xXG-34" value="3: use()" style="text;html=1;align=center;verticalAlign=middle;resizable=0;points=[];autosize=1;strokeColor=none;fillColor=none;" parent="1" vertex="1">
          <mxGeometry x="354" y="660" width="60" height="30" as="geometry" />
        </mxCell>
        <mxCell id="-_uWjWU2zD5phCel9xXG-36" value="" style="endArrow=classic;dashed=1;html=1;rounded=0;endFill=1;" parent="1" edge="1">
          <mxGeometry width="50" height="50" relative="1" as="geometry">
            <mxPoint x="330" y="650" as="sourcePoint" />
            <mxPoint x="330" y="690" as="targetPoint" />
          </mxGeometry>
        </mxCell>
        <mxCell id="-_uWjWU2zD5phCel9xXG-37" value="4: s" style="text;html=1;align=center;verticalAlign=middle;resizable=0;points=[];autosize=1;strokeColor=none;fillColor=none;" parent="1" vertex="1">
          <mxGeometry x="293" y="655" width="40" height="30" as="geometry" />
        </mxCell>
        <mxCell id="-_uWjWU2zD5phCel9xXG-39" value="" style="endArrow=classic;html=1;rounded=0;" parent="1" edge="1">
          <mxGeometry width="50" height="50" relative="1" as="geometry">
            <mxPoint x="430" y="700" as="sourcePoint" />
            <mxPoint x="480" y="660" as="targetPoint" />
          </mxGeometry>
        </mxCell>
        <mxCell id="-_uWjWU2zD5phCel9xXG-40" value="5: stun()" style="text;html=1;align=center;verticalAlign=middle;resizable=0;points=[];autosize=1;strokeColor=none;fillColor=none;" parent="1" vertex="1">
          <mxGeometry x="450" y="670" width="70" height="30" as="geometry" />
        </mxCell>
      </root>
    </mxGraphModel>
  </diagram>
  <diagram id="Xn3M_0BOEY3UbDwNUt2p" name="Attack GlassOfBeer Effect">
    <mxGraphModel dx="860" dy="414" grid="1" gridSize="10" guides="1" tooltips="1" connect="1" arrows="1" fold="1" page="1" pageScale="1" pageWidth="827" pageHeight="1169" math="0" shadow="0">
      <root>
        <mxCell id="0" />
        <mxCell id="1" parent="0" />
        <mxCell id="zxKfu_uZKBlF80Zoo22S-1" value="&lt;b&gt;sd &lt;/b&gt;Attack GlassOfBeer Effect" style="shape=umlFrame;whiteSpace=wrap;html=1;pointerEvents=0;width=190;height=30;" parent="1" vertex="1">
          <mxGeometry x="140" y="570" width="420" height="280" as="geometry" />
        </mxCell>
        <mxCell id="zxKfu_uZKBlF80Zoo22S-2" style="edgeStyle=orthogonalEdgeStyle;rounded=0;orthogonalLoop=1;jettySize=auto;html=1;exitX=0.5;exitY=0;exitDx=0;exitDy=0;entryX=0.5;entryY=1;entryDx=0;entryDy=0;endArrow=none;endFill=0;" parent="1" source="zxKfu_uZKBlF80Zoo22S-4" target="zxKfu_uZKBlF80Zoo22S-6" edge="1">
          <mxGeometry relative="1" as="geometry" />
        </mxCell>
        <mxCell id="zxKfu_uZKBlF80Zoo22S-4" value="g: GlassOfBeer" style="html=1;whiteSpace=wrap;" parent="1" vertex="1">
          <mxGeometry x="390" y="720" width="110" height="50" as="geometry" />
        </mxCell>
        <mxCell id="zxKfu_uZKBlF80Zoo22S-6" value="s: Student" style="html=1;whiteSpace=wrap;" parent="1" vertex="1">
          <mxGeometry x="390" y="595" width="110" height="50" as="geometry" />
        </mxCell>
        <mxCell id="zxKfu_uZKBlF80Zoo22S-7" style="edgeStyle=orthogonalEdgeStyle;rounded=0;orthogonalLoop=1;jettySize=auto;html=1;exitX=1;exitY=0.5;exitDx=0;exitDy=0;entryX=0;entryY=0.5;entryDx=0;entryDy=0;endArrow=none;endFill=0;" parent="1" source="zxKfu_uZKBlF80Zoo22S-8" target="zxKfu_uZKBlF80Zoo22S-4" edge="1">
          <mxGeometry relative="1" as="geometry" />
        </mxCell>
        <mxCell id="zxKfu_uZKBlF80Zoo22S-8" value="it: Item" style="html=1;whiteSpace=wrap;" parent="1" vertex="1">
          <mxGeometry x="160" y="720" width="110" height="50" as="geometry" />
        </mxCell>
        <mxCell id="zxKfu_uZKBlF80Zoo22S-9" value="1: onAttacked()" style="text;html=1;align=center;verticalAlign=middle;resizable=0;points=[];autosize=1;strokeColor=none;fillColor=none;" parent="1" vertex="1">
          <mxGeometry x="280" y="710" width="100" height="30" as="geometry" />
        </mxCell>
        <mxCell id="zxKfu_uZKBlF80Zoo22S-10" style="edgeStyle=orthogonalEdgeStyle;rounded=0;orthogonalLoop=1;jettySize=auto;html=1;exitX=0.994;exitY=0.863;exitDx=0;exitDy=0;entryX=0.5;entryY=1;entryDx=0;entryDy=0;endArrow=none;endFill=0;exitPerimeter=0;" parent="1" source="zxKfu_uZKBlF80Zoo22S-4" target="zxKfu_uZKBlF80Zoo22S-4" edge="1">
          <mxGeometry relative="1" as="geometry">
            <Array as="points">
              <mxPoint x="499" y="765" />
              <mxPoint x="530" y="765" />
              <mxPoint x="530" y="800" />
              <mxPoint x="445" y="800" />
            </Array>
          </mxGeometry>
        </mxCell>
        <mxCell id="zxKfu_uZKBlF80Zoo22S-11" value="" style="endArrow=classic;html=1;rounded=0;" parent="1" edge="1">
          <mxGeometry width="50" height="50" relative="1" as="geometry">
            <mxPoint x="530" y="810" as="sourcePoint" />
            <mxPoint x="450" y="810" as="targetPoint" />
            <Array as="points">
              <mxPoint x="510" y="810" />
            </Array>
          </mxGeometry>
        </mxCell>
        <mxCell id="zxKfu_uZKBlF80Zoo22S-12" value="&lt;span style=&quot;background-color: rgb(255, 255, 255);&quot;&gt;2:&amp;nbsp;&lt;/span&gt;&lt;span style=&quot;font-size: 11px; text-align: left;&quot;&gt;getActivated&lt;/span&gt;&lt;span style=&quot;background-color: rgb(255, 255, 255);&quot;&gt;()&lt;/span&gt;" style="text;html=1;align=center;verticalAlign=middle;resizable=0;points=[];autosize=1;strokeColor=none;fillColor=none;" parent="1" vertex="1">
          <mxGeometry x="440" y="810" width="110" height="30" as="geometry" />
        </mxCell>
        <mxCell id="zxKfu_uZKBlF80Zoo22S-13" value="" style="endArrow=classic;html=1;rounded=0;" parent="1" edge="1">
          <mxGeometry width="50" height="50" relative="1" as="geometry">
            <mxPoint x="455" y="711" as="sourcePoint" />
            <mxPoint x="455" y="661" as="targetPoint" />
          </mxGeometry>
        </mxCell>
        <mxCell id="zxKfu_uZKBlF80Zoo22S-14" value="3: removeItem()" style="text;html=1;align=center;verticalAlign=middle;resizable=0;points=[];autosize=1;strokeColor=none;fillColor=none;" parent="1" vertex="1">
          <mxGeometry x="450" y="670" width="110" height="30" as="geometry" />
        </mxCell>
        <mxCell id="zxKfu_uZKBlF80Zoo22S-15" value="" style="endArrow=classic;dashed=1;html=1;rounded=0;endFill=1;" parent="1" edge="1">
          <mxGeometry width="50" height="50" relative="1" as="geometry">
            <mxPoint x="430" y="660" as="sourcePoint" />
            <mxPoint x="430" y="700" as="targetPoint" />
          </mxGeometry>
        </mxCell>
        <mxCell id="zxKfu_uZKBlF80Zoo22S-16" value="4: s" style="text;html=1;align=center;verticalAlign=middle;resizable=0;points=[];autosize=1;strokeColor=none;fillColor=none;" parent="1" vertex="1">
          <mxGeometry x="393" y="665" width="40" height="30" as="geometry" />
        </mxCell>
      </root>
    </mxGraphModel>
  </diagram>
  <diagram id="rCSESKLrBALXlpppG-cJ" name="Attack TVSZ Effect">
    <mxGraphModel dx="1290" dy="621" grid="1" gridSize="10" guides="1" tooltips="1" connect="1" arrows="1" fold="1" page="1" pageScale="1" pageWidth="827" pageHeight="1169" math="0" shadow="0">
      <root>
        <mxCell id="0" />
        <mxCell id="1" parent="0" />
        <mxCell id="YfdWUe0AxmHlzozthzBT-1" value="&lt;b&gt;sd &lt;/b&gt;Attack TVSZ Effect" style="shape=umlFrame;whiteSpace=wrap;html=1;pointerEvents=0;width=190;height=30;" parent="1" vertex="1">
          <mxGeometry x="110" y="620" width="490" height="310" as="geometry" />
        </mxCell>
        <mxCell id="YfdWUe0AxmHlzozthzBT-2" style="edgeStyle=orthogonalEdgeStyle;rounded=0;orthogonalLoop=1;jettySize=auto;html=1;exitX=0.5;exitY=0;exitDx=0;exitDy=0;entryX=0.5;entryY=1;entryDx=0;entryDy=0;endArrow=none;endFill=0;" parent="1" source="YfdWUe0AxmHlzozthzBT-4" target="YfdWUe0AxmHlzozthzBT-6" edge="1">
          <mxGeometry relative="1" as="geometry" />
        </mxCell>
        <mxCell id="YfdWUe0AxmHlzozthzBT-4" value="t: TVSZ" style="html=1;whiteSpace=wrap;" parent="1" vertex="1">
          <mxGeometry x="360" y="770" width="110" height="50" as="geometry" />
        </mxCell>
        <mxCell id="YfdWUe0AxmHlzozthzBT-6" value="s: Student" style="html=1;whiteSpace=wrap;" parent="1" vertex="1">
          <mxGeometry x="360" y="645" width="110" height="50" as="geometry" />
        </mxCell>
        <mxCell id="YfdWUe0AxmHlzozthzBT-7" style="edgeStyle=orthogonalEdgeStyle;rounded=0;orthogonalLoop=1;jettySize=auto;html=1;exitX=1;exitY=0.5;exitDx=0;exitDy=0;entryX=0;entryY=0.5;entryDx=0;entryDy=0;endArrow=none;endFill=0;" parent="1" source="YfdWUe0AxmHlzozthzBT-8" target="YfdWUe0AxmHlzozthzBT-4" edge="1">
          <mxGeometry relative="1" as="geometry" />
        </mxCell>
        <mxCell id="YfdWUe0AxmHlzozthzBT-8" value="it: Item" style="html=1;whiteSpace=wrap;" parent="1" vertex="1">
          <mxGeometry x="130" y="770" width="110" height="50" as="geometry" />
        </mxCell>
        <mxCell id="YfdWUe0AxmHlzozthzBT-9" value="1: onAttacked()" style="text;html=1;align=center;verticalAlign=middle;resizable=0;points=[];autosize=1;strokeColor=none;fillColor=none;" parent="1" vertex="1">
          <mxGeometry x="250" y="760" width="100" height="30" as="geometry" />
        </mxCell>
        <mxCell id="YfdWUe0AxmHlzozthzBT-10" style="edgeStyle=orthogonalEdgeStyle;rounded=0;orthogonalLoop=1;jettySize=auto;html=1;exitX=0.994;exitY=0.863;exitDx=0;exitDy=0;entryX=0.5;entryY=1;entryDx=0;entryDy=0;endArrow=none;endFill=0;exitPerimeter=0;" parent="1" source="YfdWUe0AxmHlzozthzBT-4" target="YfdWUe0AxmHlzozthzBT-4" edge="1">
          <mxGeometry relative="1" as="geometry">
            <Array as="points">
              <mxPoint x="469" y="815" />
              <mxPoint x="500" y="815" />
              <mxPoint x="500" y="850" />
              <mxPoint x="415" y="850" />
            </Array>
          </mxGeometry>
        </mxCell>
        <mxCell id="YfdWUe0AxmHlzozthzBT-11" value="" style="endArrow=classic;html=1;rounded=0;" parent="1" edge="1">
          <mxGeometry width="50" height="50" relative="1" as="geometry">
            <mxPoint x="500" y="860" as="sourcePoint" />
            <mxPoint x="420" y="860" as="targetPoint" />
            <Array as="points">
              <mxPoint x="480" y="860" />
            </Array>
          </mxGeometry>
        </mxCell>
        <mxCell id="YfdWUe0AxmHlzozthzBT-12" value="2: getWetness()&lt;br&gt;&lt;div style=&quot;&quot;&gt;&lt;span style=&quot;background-color: initial;&quot;&gt;3: addProtection()&lt;br&gt;&lt;div style=&quot;&quot;&gt;&lt;span style=&quot;background-color: initial;&quot;&gt;4: getRemainingProtection()&lt;/span&gt;&lt;/div&gt;&lt;/span&gt;&lt;/div&gt;" style="text;html=1;align=left;verticalAlign=middle;resizable=0;points=[];autosize=1;strokeColor=none;fillColor=none;" parent="1" vertex="1">
          <mxGeometry x="420" y="860" width="170" height="60" as="geometry" />
        </mxCell>
        <mxCell id="YfdWUe0AxmHlzozthzBT-13" value="" style="endArrow=classic;html=1;rounded=0;" parent="1" edge="1">
          <mxGeometry width="50" height="50" relative="1" as="geometry">
            <mxPoint x="425" y="761" as="sourcePoint" />
            <mxPoint x="425" y="711" as="targetPoint" />
          </mxGeometry>
        </mxCell>
        <mxCell id="YfdWUe0AxmHlzozthzBT-14" value="5: removeItem()" style="text;html=1;align=center;verticalAlign=middle;resizable=0;points=[];autosize=1;strokeColor=none;fillColor=none;" parent="1" vertex="1">
          <mxGeometry x="418" y="720" width="110" height="30" as="geometry" />
        </mxCell>
        <mxCell id="YfdWUe0AxmHlzozthzBT-15" value="" style="endArrow=classic;dashed=1;html=1;rounded=0;endFill=1;" parent="1" edge="1">
          <mxGeometry width="50" height="50" relative="1" as="geometry">
            <mxPoint x="400" y="710" as="sourcePoint" />
            <mxPoint x="400" y="750" as="targetPoint" />
          </mxGeometry>
        </mxCell>
        <mxCell id="YfdWUe0AxmHlzozthzBT-16" value="6: s" style="text;html=1;align=center;verticalAlign=middle;resizable=0;points=[];autosize=1;strokeColor=none;fillColor=none;" parent="1" vertex="1">
          <mxGeometry x="363" y="715" width="40" height="30" as="geometry" />
        </mxCell>
      </root>
    </mxGraphModel>
  </diagram>
</mxfile>
